<svg fill="none" viewBox="0 0 1000 1000" xmlns="http://www.w3.org/2000/svg">
	<title>Maestro logo</title>
	<defs>
		<linearGradient id="gradient" gradientTransform="rotate(80 0.5 0.5)">
			<stop offset="0%" stop-color="oklch(75% 0.15 0)" />
			<stop offset="14.2%" stop-color="oklch(75% 0.15 45)" />
			<stop offset="28.5%" stop-color="oklch(75% 0.15 90)" />
			<stop offset="42.8%" stop-color="oklch(75% 0.15 135)" />
			<stop offset="57.1%" stop-color="oklch(75% 0.15 180)" />
			<stop offset="71.4%" stop-color="oklch(75% 0.15 225)" />
			<stop offset="85.7%" stop-color="oklch(75% 0.15 270)" />
			<stop offset="100%" stop-color="oklch(75% 0.15 315)" />
		</linearGradient>
		<g id="feather">
			<path transform="rotate(10) translate(30, 150)" d="M 0 0 C 150 100 150 150 150 300 C 150 500 175 750 200 800 C 0 750 -50 600 -50 400 C -50 250 -50 100 0 0 z" fill="url(#gradient)" />
			<path d="M 0 0 Q 20 350 20 500 Q 20 750 0 1000 z" fill="#505050" stroke="none" transform="scale(1, 0.6)" />
		</g>
	</defs>
	<use transform="translate(250, 780) rotate(-140) scale(0.75)" href="#feather" />
	<path d="M 0 0 Q 100 0 200 -50 Q 300 -100 500 -100 Q 300 -120 200 -70 Q 100 -20 0 0 z" fill="#000" stroke="none" transform="translate(255, 785)" />
</svg>
