<svg fill="none" viewBox="0 0 1000 1000" xmlns="http://www.w3.org/2000/svg">
	<title>Maestro logo</title>
	<defs>
		<linearGradient id="gradient" gradientTransform="rotate(280 0.5 0.5)">
			<stop offset="0%" stop-color="oklch(75% 0.15 0)" />
			<stop offset="12.5%" stop-color="oklch(75% 0.15 45)" />
			<stop offset="25%" stop-color="oklch(75% 0.15 90)" />
			<stop offset="37.5%" stop-color="oklch(75% 0.15 135)" />
			<stop offset="50%" stop-color="oklch(75% 0.15 180)" />
			<stop offset="62.5%" stop-color="oklch(75% 0.15 225)" />
			<stop offset="75%" stop-color="oklch(75% 0.15 270)" />
			<stop offset="87.5%" stop-color="oklch(75% 0.15 315)" />
		</linearGradient>
		<filter id="noise" x="-20%" y="-20%" width="140%" height="140%" filterUnits="objectBoundingBox" primitiveUnits="userSpaceOnUse" color-interpolation-filters="linearRGB">
			<feTurbulence type="fractalNoise" baseFrequency="0.05" numOctaves="4" seed="15" stitchTiles="stitch" x="0%" y="0%" width="100%" height="100%" result="turbulence" />
			<feSpecularLighting surfaceScale="15" specularConstant="0.75" specularExponent="20" lighting-color="#404040" x="0%" y="0%" width="100%" height="100%" in="turbulence" result="specularLighting">
				<feDistantLight azimuth="3" elevation="100" />
			</feSpecularLighting>
		</filter>
		<g id="feather">
			<path transform="rotate(10) translate(35, 175)" d="M 0 0 C 150 100 150 150 150 300 C 150 500 175 750 200 800 C 0 750 -50 600 -50 400 C -50 250 -50 100 0 0 z" fill="url(#gradient)" stroke="#505050" stroke-width="3" stroke-linecap="round" />
			<path d="M 0 0 Q 20 350 20 500 Q 20 750 0 1000 z" fill="#505050" stroke="none" transform="scale(1, 0.6)" />
		</g>
	</defs>
	<clipPath id="feather-mask">
		<use transform="translate(200, 800) rotate(-140) scale(0.75)" href="#feather" />
	</clipPath>
	<use transform="translate(200, 800) rotate(-140) scale(0.75)" href="#feather" />
	<rect clip-path="url(#feather-mask)" x="0" y="0" width="100%" height="100%" stroke="none" filter="url(#noise)" />
</svg>